<svg version="1.1" viewBox="0 0 512 512" xmlns="http://www.w3.org/2000/svg" xmlns:xlink="http://www.w3.org/1999/xlink"><defs><linearGradient id="linearGradient22"><stop offset=".516"/><stop stop-color="#1a1a1a" stop-opacity=".631" offset="1"/></linearGradient><linearGradient id="c" x1="4602" x2="4284" y1="3057" y2="1454" gradientTransform="matrix(1.25 0 0 1.25 -763 -413)" gradientUnits="userSpaceOnUse" xlink:href="#linearGradient22"/><linearGradient id="d" x1="3180" x2="1950" y1="3557" y2="1361" gradientTransform="matrix(1.25 0 0 1.25 -763 -413)" gradientUnits="userSpaceOnUse" xlink:href="#linearGradient22"/></defs><path d="m8.28 174c-7.97-0.02-5.69 7.99-3.61 13.2l7.78 19.6c1.25 3.15 7.93 17.8 9.13 21.4 0.56 1.69 0.475 6 2.2 7.39 2.8 2.26 5.96-1.76 1.4-13.3l-10.2-25.9c-2.7-6.86-6.39-12 6.87-5.72l53.4 26.7c14.5 7.59 15.3 15.5 15.6 28.2l1.68 63.3c0.862 32.5 32.6 54.5 60.4 58.7 14.7 2.23 44.4-0.843 66.3-4.19 38.4-5.87 74.3-58 86-118 1.85-7.36-2.96-22.2 11.1-20 12.8-1.53 14.5-1.77 12.6 8.21-17.5 25.3-9.9 55.7 7.06 88.2l0.34-0.257c4.66 12.4 12.6 20 23.4 22.3 8.91 1.86 30.6-1.92 43.8-4.7 25.8-9.45 31.7-28.9 40-48 8.74-20.2 21.3-53.3 26.1-75.3 2.31-10.5 4.22-16.3-17.1-18.6-52.7-4.49-104-8.28-155-11.3-13.6 1.29-23.1 3.26-28 6.78-9.11-2.6-18.4-3.14-28.1-2.72 0 0-10.2 0.253-24.4 0.67-44.7-2.05-87.8 1.19-130 6.35-27.4-2.5-35.6-8.42-66-19.9-5.81-2.07-9.77-2.93-12.4-2.93zm290 20.9c13.5-9e-3 29.4 2.59 48.4 5.54-6.42 3.45-10 8.06-29 6.68-17.2 0.616-24-6.36-34.2-10.9 4.59-0.937 9.51-1.34 14.8-1.34zm-56.5 3.38c29.2 0.042 59.2 13.5 51.8 50.8-10.6 53.8-41.4 99.5-76.3 105-19.9 3-47 5.75-60.4 3.75-25.3-3.77-54.2-23.4-54.9-52.6l-1.53-56.7c-0.784-29.1 20.1-45.2 51.1-46.9 29-1.63 86-3 86-3a96.5 96.5 0 0 1 4.29-0.091zm183 7.75c17-0.075 36.3 4.86 26.1 42.1-11.8 43.3-27.8 79-48.4 83.3-11.8 2.48-31.1 5.83-39 4.18-15-3.12-23.7-17.8-25-41.8l-1.98-37.7c-1.27-24 11.9-46 30.3-47.4 17.2-1.34 50.9-2.48 50.9-2.48 2.25-0.135 4.64-0.246 7.08-0.257z" fill="#333"/><path d="m259 198-38.8 27.6c-6.82 4.78-12.2 8.01-1.35 7.83 4.38 2 7.76 1.6 9.99-2.16l40.5-32.1z"/><path transform="translate(-83.6 43.5) scale(.101)" d="m4441 1629c169-13.2 502-24.5 502-24.5 177-10.7 442-7.16 327 413-116 427-274 778-477 821-116 24.4-306 57.5-384 41.2-147-30.7-234-175-246-412l-19.6-371c-12.5-237 117-453 298-467z" fill="url(#c)" fill-rule="evenodd"/><path d="m449 255c-12.8 39.7-29.8 71.5-51.5 75.6-10.4 1.94-26 4.43-36.4 4.54 0.763 0.232 1.54 0.432 2.34 0.598 7.92 1.65 27.2-1.7 39-4.18 19.6-4.11 35-36.3 46.6-76.6z" fill="#666" fill-rule="evenodd"/><path d="m295 223c-2.51 17.6-7.27 27.8-15.4 42.4a1665 1665 0 0 1-21.3 64.1c23.8-28.4 39.3-62.9 36.7-107z"/><path transform="translate(-83.6 43.5) scale(.101)" d="m2318 1556c286-16 847-29.6 847-29.6 300-12.9 629 114 553 499-105 530-408 980-752 1032-196 29.5-463 56.7-595 37-249-37.2-534-231-541-518l-15-559c-7.73-287 198-445 504-462z" fill="url(#d)" fill-rule="evenodd"/><path d="m289 268c-13.7 43.7-41.9 78.4-73.4 82.8-20.4 2.88-48 5.53-61.7 3.61-10.2-1.43-21-5.25-30.3-11.1 9.94 7.54 22 12.5 33.4 14.2 13.4 2 40.4-0.756 60.4-3.75 30.7-4.62 58.2-40.5 71.7-85.8z" fill="#666" fill-rule="evenodd"/><path d="m8.28 174c-3.68-0.01-4.86 1.62-5 3.93a9.1 9.1 0 0 1 1.77-0.15c2.66 7e-3 6.62 0.866 12.4 2.93 30.4 11.4 38.7 17.4 66 19.9 88.2-12.5 109-8.3 176-7.95-17.2-3.36-28.2-2.61-42.8-2.19-44.7-2.05-87.8 1.19-130 6.35-27.4-2.5-35.6-8.42-66-19.9-5.81-2.07-9.77-2.93-12.4-2.93z" fill="#4d4d4d"/><path d="m271 191c5.78-0.392 15.9-3.28 21.7-3.82 22.1 1.73 159 9.45 159 9.45s-104-8.28-155-11.3c-12.2 1.15-21 2.85-26.2 5.7z" fill="#333"/><path d="m314 211c18.8 3.08 21.8-4.71 28.2-8.17-10.7 4.93-16.3 3.92-25 4.39 0 0-15.8 1.72-3.24 3.78z" fill="#666"/><path d="m307 230c-6.09 2.91-3.3 13.6-4.78 19.5-6.6 34-20.9 65.4-39 87.3 19.7-22.1 35.3-55.2 42.3-91.1 1.08-4.31-0.121-11.2 1.54-15.7z" fill="#333"/><g fill="#666"><path d="m100 199s-8.12 4.63-12.6 4.87c-6.32 0.342-18.3-4.89-18.3-4.89l18.3 1.46zm130 148c-7.66 6.6-12.6 8.27-23.1 5.07 0 0 5.17-6.72 11.6-6.72s11.6 1.65 11.6 1.65zm187-23.4s-5.82 5.19-9.87 5.19-4.8 3.88-4.8 2.41 3.28-7.72 7.34-7.72 7.34 0.123 7.34 0.123z"/><path d="m399 210c0.194 2.27 0.505 9.54 0.919 11.6 14.5-0.28 19 12.1 20.2 17.5 5.54-0.903 9.3-3.77 9.3-3.77s1.17-14.4 1.54-25.3c-11.1-1.84-22.1-0.461-32-0.043zm48.9 15.6c-13.1 13.1-13.3 16.7-12.3-11.6 6.1-0.99 12.4 5.75 12.3 11.6z" fill-opacity=".784"/></g></svg>
