<svg version="1.1" viewBox="0 0 607 1395" xmlns="http://www.w3.org/2000/svg"><g transform="translate(-.257 .00157)" stroke="#000" stroke-width="0"><path d="m2.5 2.25h603v1390h-603z" color="#000000" fill="#212178"/><g color="#000000" stroke="#fff" stroke-linecap="round" stroke-linejoin="round"><path d="m583 1360c0-8.53-6.91-15.4-15.4-15.4s-15.4 6.91-15.4 15.4 6.91 15.4 15.4 15.4 15.4-6.91 15.4-15.4zm-527 0c0-8.53-6.91-15.4-15.4-15.4s-15.4 6.91-15.4 15.4 6.91 15.4 15.4 15.4 15.4-6.91 15.4-15.4z" stroke-width="0"/></g><g fill-rule="evenodd"><path d="m449 41.6c-2.15 0-4.3 0.8-5.94 2.44-3.28 3.28-3.28 8.6 0 11.9a8.39 8.39 0 0 0 8.12 2.19l37.7 37.7a8.33 8.33 0 0 0 0.375 5.31c0.744 1.8 2.05 3.17 3.62 4.06v153c-3.66 2.05-5.27 6.56-3.62 10.5 1.62 3.91 5.86 5.94 9.84 4.91l37.7 37.7a8.33 8.33 0 0 0 0.375 5.31 8.39 8.39 0 0 0 3.62 4.09l-0.156 129c-2.47 1.46-4.15 4.14-4.16 7.22 0 4.63 3.74 8.4 8.38 8.41 4.63 5e-3 8.4-3.78 8.41-8.41 0-3.1-1.68-5.8-4.19-7.25l0.093-129a8.38 8.38 0 0 0 3.5-10.4c-1.64-3.96-5.97-6-10-4.88l-37.6-37.6a8.34 8.34 0 0 0-0.344-5.47 8.38 8.38 0 0 0-3.5-4.03v-153c3.54-2.09 5.12-6.53 3.5-10.4-1.64-3.96-5.97-6-10-4.88l-37.7-37.7c0.745-2.8 0.037-5.93-2.16-8.12-1.64-1.64-3.79-2.44-5.94-2.44zm-359 0.285c-4.63 0-8.41 3.74-8.41 8.38a8.45 8.45 0 0 0 4.19 7.28v81.3a8.42 8.42 0 0 0-1.84 1.41 8.38 8.38 0 0 0-2.19 8.09l-13.7 13.7a8.38 8.38 0 0 0-8.09 2.19 8.37 8.37 0 0 0 0 11.8c0.41 0.41 0.848 0.787 1.31 1.09 0.167 0.114 0.356 0.18 0.531 0.281v33.4a8.35 8.35 0 0 0-4.19 7.25c0 4.63 3.74 8.41 8.38 8.41s8.41-3.78 8.41-8.41c0-3.11-1.71-5.8-4.22-7.25v-33.4a8.4 8.4 0 0 0 4.22-7.28c0-0.802-0.134-1.58-0.345-2.31l13.6-13.6c0.069 0.019 0.15 0.015 0.219 0.032 0.67 0.173 1.37 0.312 2.09 0.312 4.63 0 8.38-3.78 8.38-8.41a8.37 8.37 0 0 0-3.88-7.06c-0.102-0.068-0.208-0.125-0.313-0.188v-81.4a8.4 8.4 0 0 0 4.19-7.28 8.37 8.37 0 0 0-8.38-8.38zm71.9 0a8.37 8.37 0 0 0-8.38 8.38c0 3.1 1.68 5.83 4.19 7.28v33.3a8.37 8.37 0 0 0-1.88 1.41c-3.28 3.28-3.28 8.6 0 11.9a8.37 8.37 0 0 0 1.88 1.41v153a8.36 8.36 0 0 0-3.38 11.2c1.35 2.83 4.22 4.78 7.56 4.78 0.801 0 1.58-0.102 2.31-0.312l13.4 13.4c-0.485 1.82-0.321 3.78 0.437 5.53 0.024 0.063 0.036 0.126 0.063 0.188 0.059 0.126 0.123 0.251 0.188 0.375a8.4 8.4 0 0 0 3.34 3.62v33.4a8.35 8.35 0 0 0-4.19 7.25c0 4.63 3.74 8.41 8.38 8.41s8.41-3.78 8.41-8.41c0-3.1-1.71-5.8-4.22-7.25v-33.4c2.51-1.45 4.22-4.15 4.22-7.25 0-1.22-0.28-2.39-0.75-3.44a8.39 8.39 0 0 0-1.84-2.78 8.39 8.39 0 0 0-8.12-2.19l-13.5-13.5c0.163-0.653 0.281-1.33 0.281-2.03 0-1.22-0.279-2.39-0.75-3.44a8.39 8.39 0 0 0-1.84-2.78c-0.5-0.5-1.04-0.934-1.62-1.28v-153a8.33 8.33 0 0 0 1.62-1.25 8.39 8.39 0 0 0 2.19-8.12l13.7-13.7c2.8 0.746 5.9 0.038 8.09-2.16 3.28-3.28 3.28-8.6 0-11.9s-8.6-3.28-11.9 0c-2.2 2.2-2.91 5.32-2.16 8.13l-11.6 11.6v-30.4c2.51-1.45 4.22-4.18 4.22-7.28 0-4.63-3.78-8.38-8.41-8.38zm168 0a8.37 8.37 0 0 0-8.38 8.38c0 3.1 1.68 5.83 4.19 7.28v33.1a8.36 8.36 0 0 0-3.38 11.2c1.35 2.83 4.22 4.78 7.56 4.78 0.8 0 1.58-0.102 2.31-0.312l37.4 37.4a8.33 8.33 0 0 0 0.375 5.31 8.39 8.39 0 0 0 3.63 4.09v153c-3.22 1.82-4.86 5.55-4.06 9.12 0.015 0.061 0.018 0.127 0.031 0.188 0.033 0.132 0.086 0.274 0.125 0.406a8.36 8.36 0 0 0 3.91 5.16v153a8.36 8.36 0 0 0-4.19 7.25c0 4.63 3.74 8.41 8.38 8.41 4.63 0 8.41-3.78 8.41-8.41 0-3.1-1.71-5.8-4.22-7.25v-151l35.6 35.6c-0.446 1.71-0.383 3.56 0.343 5.31 0.745 1.8 2.05 3.17 3.63 4.06v105a8.35 8.35 0 0 0-4.19 7.25c0 4.63 3.74 8.41 8.38 8.41s8.41-3.78 8.41-8.41c0-3.11-1.71-5.8-4.22-7.25v-105a8.38 8.38 0 0 0 3.5-10.4 8.35 8.35 0 0 0-10-4.84l-37.5-37.5c0.162-0.652 0.28-1.33 0.28-2.03 0-0.375-0.046-0.732-0.094-1.09-0.018-0.2-0.06-0.394-0.094-0.594-0.015-0.072-0.015-0.147-0.032-0.219-0.04-0.21-0.099-0.416-0.156-0.625a7.98 7.98 0 0 0-0.063-0.187 8.36 8.36 0 0 0-0.281-0.813 8.33 8.33 0 0 0-3.5-4v-153a8.38 8.38 0 0 0 3.5-10.4c-1.64-3.96-5.97-6-10-4.88l-37.5-37.5c0.163-0.651 0.281-1.33 0.281-2.03a8.46 8.46 0 0 0-0.687-3.28 0.307 0.307 0 0 1-0.032-0.063c-0.015-0.03-0.018-0.063-0.031-0.094a8.38 8.38 0 0 0-1.84-2.78c-0.5-0.5-1.04-0.935-1.62-1.28v-33.2c2.51-1.45 4.22-4.18 4.22-7.28 0-4.63-3.78-8.38-8.41-8.38z"/><path d="m378 41.9a8.37 8.37 0 0 0-8.38 8.38c0 3.1 1.68 5.83 4.19 7.28v33.1c-0.626 0.36-1.22 0.81-1.75 1.34-1.67 1.67-2.47 3.87-2.44 6.06v0.157a8.37 8.37 0 0 0 8.38 8.38c0.835 0 1.65-0.117 2.41-0.344l37.5 37.5a8.33 8.33 0 0 0 0.374 5.31 8.41 8.41 0 0 0 3.59 4.09v153c-3.6 2.07-5.23 6.53-3.59 10.5 1.62 3.92 5.88 5.95 9.88 4.91l37.7 37.7a8.41 8.41 0 0 0 0.344 5.34c0.743 1.8 2.05 3.17 3.62 4.06l-0.125 129a8.4 8.4 0 0 0-4.19 7.25 8.4 8.4 0 0 0 0.344 2.31l-37.6 37.6a8.43 8.43 0 0 0-2.31-0.343c-4.63 0-8.38 3.77-8.38 8.41v0.313c0 0.18 0.015 0.353 0.032 0.531a8.41 8.41 0 0 0 4.16 6.75v105a8.36 8.36 0 0 0-4.34 7.34c0 4.63 3.74 8.38 8.38 8.38s8.41-3.74 8.41-8.38c0-3.04-1.64-5.72-4.06-7.19v-105a8.49 8.49 0 0 0 3.41-3.66 8.4 8.4 0 0 0 0.656-6.09l37.7-37.7c2.81 0.759 5.92 0.046 8.13-2.16 3.28-3.28 3.28-8.6 0-11.9a8.37 8.37 0 0 0-1.88-1.41l0.125-129c3.54-2.09 5.12-6.53 3.5-10.4-1.64-3.97-5.99-5.98-10-4.84l-37.6-37.6a8.31 8.31 0 0 0-0.313-5.47c-0.719-1.74-1.97-3.08-3.47-3.97v-153c3.54-2.09 5.09-6.53 3.47-10.4-1.64-3.97-6-6.02-10-4.88l-37.6-37.6c0.153-0.632 0.25-1.29 0.25-1.97v-0.156a8.38 8.38 0 0 0-2.47-6.06 8.41 8.41 0 0 0-1.75-1.34v-33.1c2.51-1.45 4.22-4.18 4.22-7.28 0-4.63-3.78-8.38-8.41-8.38zm-144 23.9c-2.15 0-4.3 0.8-5.94 2.44a8.43 8.43 0 0 0-2.19 8.12l-13.4 13.4a8.4 8.4 0 0 0-2.28-0.312 8.37 8.37 0 0 0-7.38 4.38c-0.072 0.12-0.123 0.251-0.188 0.375a8.25 8.25 0 0 0-0.25 0.562c-0.028 0.064-0.067 0.124-0.094 0.188a7.93 7.93 0 0 0-0.125 0.375c-1.04 2.95-0.39 6.36 1.97 8.72a8.35 8.35 0 0 0 1.84 1.38v105a8.27 8.27 0 0 0-1.84 1.38 8.4 8.4 0 0 0-2.31 7.56c0.153 0.793 0.428 1.55 0.812 2.28s0.886 1.42 1.5 2.03a8.4 8.4 0 0 0 2.03 1.5 7.88 7.88 0 0 0 2.28 0.813 8.45 8.45 0 0 0 2.41 0.125 8.76 8.76 0 0 0 0.813-0.125c0.117-0.023 0.228-0.066 0.344-0.094 0.082-0.02 0.168-9e-3 0.25-0.031l13.7 13.7a8.49 8.49 0 0 0 0.344 5.38c0.102 0.252 0.216 0.475 0.344 0.719 0.384 0.73 0.886 1.42 1.5 2.03 0.205 0.206 0.405 0.416 0.625 0.595 0.396 0.324 0.814 0.571 1.25 0.812v105a8.41 8.41 0 0 0-3.19 3.25c-0.072 0.12-0.123 0.251-0.187 0.375-0.105 0.217-0.227 0.429-0.313 0.656-0.015 0.03-0.02 0.064-0.031 0.094-0.045 0.122-0.086 0.25-0.125 0.375-0.561 1.6-0.66 3.34-0.218 4.97l-37.7 37.7c-2.8-0.745-5.93-0.038-8.13 2.16-3.28 3.28-3.28 8.6 0 11.9s8.6 3.28 11.9 0a8.39 8.39 0 0 0 2.19-8.13l37.6-37.7c2.81 0.758 5.92 0.045 8.12-2.16a8.4 8.4 0 0 0 1.5-2.03c0.027-0.047 0.036-0.108 0.063-0.156 0-0.012 0.025-0.019 0.031-0.031a8.35 8.35 0 0 0 1-4 8.36 8.36 0 0 0-4.19-7.25v-105c0.097-0.058 0.186-0.125 0.281-0.188 0-4e-3 0.024 5e-3 0.032 0a8.37 8.37 0 0 0 3.88-7.06c0-4.63-3.74-8.41-8.38-8.41-0.802 0-1.58 0.133-2.31 0.344l-13.6-13.6a8.41 8.41 0 0 0 0.312-2.31 8.36 8.36 0 0 0-4.19-7.25v-105a8.31 8.31 0 0 0 1.59-1.22 8.39 8.39 0 0 0 1.84-2.78 8.38 8.38 0 0 0 0.5-5.5l13.5-13.5c2.8 0.746 5.9 0.038 8.09-2.16 3.28-3.28 3.28-8.6 0-11.9a8.28 8.28 0 0 0-5.91-2.44zm312 23.7a8.37 8.37 0 0 0-8.38 8.38 8.36 8.36 0 0 0 4.19 7.25v153a8.36 8.36 0 0 0-4.19 7.25c0 4.63 3.74 8.41 8.38 8.41s8.41-3.77 8.41-8.41c0-3.1-1.71-5.8-4.22-7.25v-153c2.51-1.45 4.22-4.15 4.22-7.25 0-4.63-3.78-8.38-8.41-8.38zm-288 24.1c-4.63 0-8.41 3.77-8.41 8.41s3.78 8.38 8.41 8.38c3.1 0 5.8-1.69 7.25-4.19h35.1c1.45 2.5 4.15 4.19 7.25 4.19 4.63 0 8.38-3.74 8.38-8.38s-3.74-8.41-8.38-8.41c-3.1 0-5.8 1.69-7.25 4.19h-35.1c-1.45-2.5-4.15-4.19-7.25-4.19zm-144 47.8c-4.63 0-8.41 3.74-8.41 8.38a8.45 8.45 0 0 0 4.19 7.28v33.4c-2.49 1.46-4.19 4.16-4.19 7.25 0 0.792 0.138 1.56 0.344 2.28l-37.6 37.6c-4.03-1.12-8.36 0.915-10 4.88-1.62 3.91-0.045 8.35 3.5 10.4v105c-3.63 2.06-5.26 6.55-3.62 10.5 1.62 3.91 5.86 5.93 9.84 4.91l37.8 37.8a8.51 8.51 0 0 0-0.22 1.22c-0.337 2.51 0.42 5.14 2.34 7.06a8.41 8.41 0 0 0 1.84 1.38v225a8.5 8.5 0 0 0-3.66 4.31c-0.72 1.72-0.82 3.62-0.344 5.41l-13.7 13.7a8.39 8.39 0 0 0-8.12 2.19c-3.28 3.28-3.28 8.6 0 11.9a8.37 8.37 0 0 0 1.88 1.41v81.2c-0.67 0.371-1.31 0.806-1.88 1.38-2.19 2.19-2.9 5.33-2.16 8.12l-13.7 13.7a8.39 8.39 0 0 0-8.12 2.19 8.37 8.37 0 0 0 1.88 13.2v33.4c-2.51 1.45-4.22 4.15-4.22 7.25 0 4.63 3.78 8.41 8.41 8.41s8.38-3.78 8.38-8.41a8.35 8.35 0 0 0-4.19-7.25v-33.4a8.36 8.36 0 0 0 4.19-7.25c0-0.8-0.104-1.58-0.313-2.31l13.6-13.6c0.072 0.02 0.147 0.013 0.219 0.031a8.35 8.35 0 0 0 2.09 0.281 8.37 8.37 0 0 0 8.38-8.38 8.37 8.37 0 0 0-3.88-7.06c-0.102-0.068-0.208-0.125-0.312-0.187v-81.4a8.36 8.36 0 0 0 4.19-7.25c0-0.808-0.099-1.57-0.312-2.31l13.6-13.6a8.39 8.39 0 0 0 8.12-2.19 8.25 8.25 0 0 0 1.91-2.94 8.44 8.44 0 0 0 0.657-3.28 8.35 8.35 0 0 0-4.19-7.25v-225a8.33 8.33 0 0 0 1.62-1.25 8.39 8.39 0 0 0 2.34-4.53 9.8 9.8 0 0 0 0.094-0.593v-0.032c0.129-1 0.063-2.01-0.187-3.03l37.6-37.6c2.8 0.745 5.9 0.037 8.09-2.16 3.28-3.28 3.28-8.6 0-11.9a8.37 8.37 0 0 0-11.8 0 8.39 8.39 0 0 0-2.19 8.12l-37.4 37.4a8.31 8.31 0 0 0-4.59-0.031l-37.6-37.6c0.483-1.74 0.4-3.67-0.343-5.47a8.31 8.31 0 0 0-3.47-4v-105a8.31 8.31 0 0 0 3.6-4.06 8.32 8.32 0 0 0 0.375-5.28l37.7-37.7c2.8 0.745 5.9 6e-3 8.09-2.19 3.28-3.28 3.28-8.6 0-11.9a8.27 8.27 0 0 0-1.34-1.06 8.22 8.22 0 0 0-0.5-0.312v-33.4a8.4 8.4 0 0 0 4.19-7.28 8.37 8.37 0 0 0-8.38-8.38zm144 0.156c-4.63 0-8.41 3.77-8.41 8.41s3.78 8.38 8.41 8.38a8.37 8.37 0 0 0 7.25-4.16h35.1a8.38 8.38 0 0 0 7.25 4.16c4.63 0 8.38-3.74 8.38-8.38s-3.74-8.41-8.38-8.41c-3.09 0-5.8 1.69-7.25 4.19h-35.1c-1.46-2.5-4.16-4.19-7.25-4.19zm96 47.8c-4.63 0-8.41 3.78-8.41 8.41 0 3.1 1.69 5.8 4.19 7.25v33.4c-2.5 1.45-4.19 4.15-4.19 7.25 0 0.8 0.103 1.58 0.312 2.31l-13.9 13.9c-0.653-0.163-1.33-0.281-2.03-0.281-2.03 0-3.86 0.74-5.31 1.94a8.75 8.75 0 0 0-1.34 1.09 8.37 8.37 0 0 0 0 11.8 8.36 8.36 0 0 0 2.47 1.69v176c-1.57 0.89-2.88 2.27-3.62 4.06-0.723 1.74-0.781 3.58-0.344 5.28l-13.8 13.8a8.38 8.38 0 0 0-8.09 2.19c-3.28 3.28-3.28 8.57 0 11.8s8.57 3.28 11.8 0a8.39 8.39 0 0 0 2.19-8.12l13.7-13.7a8.39 8.39 0 0 0 10-4.88 8.38 8.38 0 0 0-3.5-10.4v-177c0.167-0.121 0.34-0.24 0.5-0.375 2.23-1.51 3.72-4.07 3.72-6.97 0-0.802-0.133-1.58-0.344-2.31l13.8-13.8a8.39 8.39 0 0 0 8.13-2.19 8.37 8.37 0 0 0 0-11.8 8.48 8.48 0 0 0-1.34-1.09c-0.167-0.112-0.356-0.212-0.531-0.312v-33.4c2.51-1.45 4.22-4.14 4.22-7.25 0-4.63-3.74-8.41-8.38-8.41zm-96 0.188a8.42 8.42 0 0 0-7.75 5.12c-0.106 0.25-0.2 0.487-0.281 0.75a8.42 8.42 0 0 0-0.375 2.5c0 4.63 3.78 8.41 8.41 8.41 0.29 0 0.562-0.033 0.844-0.062a8.41 8.41 0 0 0 6.41-4.12h35.1c0.093 0.16 0.178 0.316 0.281 0.468 1.51 2.23 4.08 3.72 6.97 3.72 4.63 0 8.38-3.78 8.38-8.41s-3.74-8.38-8.38-8.38c-0.29 0-0.593 3e-3 -0.875 0.032a8.38 8.38 0 0 0-6.09 3.66c-0.103 0.153-0.188 0.31-0.28 0.469h-35.1a8.37 8.37 0 0 0-7.25-4.16zm0 47.9c-4.63 0-8.41 3.74-8.41 8.38s3.78 8.41 8.41 8.41c3.1 0 5.8-1.69 7.25-4.19h33.4c1.46 2.49 4.16 4.19 7.25 4.19 4.63 0 8.38-3.78 8.38-8.41s-3.74-8.38-8.38-8.38a8.36 8.36 0 0 0-7.25 4.19h-33.4a8.35 8.35 0 0 0-7.25-4.19z"/><path d="m450 281c-2.15 0-4.3 0.832-5.94 2.47-3.28 3.27-3.28 8.6 0 11.9 2.2 2.2 5.32 2.91 8.12 2.16l37.7 37.7a8.42 8.42 0 0 0 0.375 5.34 8.31 8.31 0 0 0 3.59 4.06c-0.015 51.1-0.087 102-0.094 153-3.66 2.05-5.27 6.56-3.62 10.5 1.63 3.92 5.88 5.93 9.88 4.88l37.8 37.8a8.33 8.33 0 0 0 0.375 5.31 8.33 8.33 0 0 0 3.66 4.09v105c-2.53 1.45-4.25 4.16-4.25 7.28 0 4.63 3.78 8.41 8.41 8.41s8.38-3.78 8.38-8.41a8.37 8.37 0 0 0-4.16-7.25v-105a8.39 8.39 0 0 0 3.47-10.4c-1.64-3.96-5.97-5.97-10-4.84l-37.7-37.7a8.33 8.33 0 0 0-0.345-5.44 8.33 8.33 0 0 0-3.5-4c0.015-51.1 0.146-102 0.157-153 3.52-2.1 5.08-6.51 3.47-10.4-1.64-3.96-5.97-5.97-10-4.84l-37.7-37.7a8.39 8.39 0 0 0-2.19-8.12c-1.64-1.64-3.76-2.47-5.91-2.47zm-359 0.125c-4.63 0-8.41 3.77-8.41 8.41s3.78 8.38 8.41 8.38c3.1 0 5.8-1.69 7.25-4.19h33.4c1.45 2.5 4.15 4.19 7.25 4.19 4.63 0 8.41-3.74 8.41-8.38s-3.77-8.41-8.41-8.41c-3.1 0-5.8 1.69-7.25 4.19h-33.4c-1.45-2.5-4.15-4.19-7.25-4.19zm168 23.8c-4.63 0-8.41 3.74-8.41 8.38 0 3.1 1.71 5.8 4.22 7.25v81.4c-2.51 1.45-4.22 4.15-4.22 7.25 0 0.79 0.14 1.56 0.344 2.28l-37.6 37.6a8.42 8.42 0 0 0-8.12 2.19 8.36 8.36 0 0 0-1.88 2.88 8.42 8.42 0 0 0-0.688 3.34c0 3.09 1.7 5.8 4.19 7.25v33.4c-2.5 1.45-4.19 4.16-4.19 7.25 0 4.63 3.78 8.41 8.41 8.41s8.38-3.78 8.38-8.41a8.35 8.35 0 0 0-4.19-7.25v-33.4a8.4 8.4 0 0 0 3.34-3.62c0.065-0.123 0.13-0.248 0.188-0.375a8.04 8.04 0 0 0 0.25-0.656c0.015-0.03 0.021-0.063 0.031-0.094 0.083-0.262 0.163-0.54 0.22-0.812a8.42 8.42 0 0 0-0.032-4.12l37.7-37.7c2.8 0.745 5.9 6e-3 8.09-2.19a8.37 8.37 0 0 0 0-11.8 8.47 8.47 0 0 0-1.34-1.09c-0.16-0.108-0.332-0.184-0.5-0.28v-81.4a8.36 8.36 0 0 0 4.19-7.25 8.37 8.37 0 0 0-8.38-8.38zm47.9 0c-4.63 0-8.41 3.74-8.41 8.38 0 3.1 1.71 5.8 4.22 7.25v129c-2.51 1.45-4.22 4.15-4.22 7.25 0 0.802 0.134 1.58 0.345 2.31l-37.6 37.6c-2.79-0.734-5.91-0.03-8.09 2.16a8.37 8.37 0 0 0-2.09 3.56c-0.28 0.836-0.469 1.73-0.469 2.66 0 3.1 1.71 5.8 4.22 7.25v153c-2.51 1.45-4.22 4.15-4.22 7.25 0 4.63 3.78 8.41 8.41 8.41s8.38-3.77 8.38-8.41a8.35 8.35 0 0 0-4.19-7.25v-153a8.37 8.37 0 0 0 3.81-4.75c0.566-1.61 0.661-3.33 0.219-4.97l37.7-37.7c2.8 0.745 5.9 0.037 8.09-2.16 3.28-3.28 3.28-8.6 0-11.9a8.38 8.38 0 0 0-1.84-1.38v-129a8.36 8.36 0 0 0 4.19-7.25 8.37 8.37 0 0 0-8.38-8.38zm-192 24.3a8.37 8.37 0 0 0-8.38 8.38 8.36 8.36 0 0 0 4.19 7.25v33.4a8.35 8.35 0 0 0-4.19 7.25c0 4.63 3.74 8.41 8.38 8.41s8.41-3.78 8.41-8.41c0-3.1-1.71-5.8-4.22-7.25v-33.4c2.51-1.45 4.22-4.15 4.22-7.25 0-4.63-3.78-8.38-8.41-8.38zm-52.1 91.5c-2.15 0-4.3 0.8-5.94 2.44-3.28 3.28-3.28 8.6 0 11.9a8.39 8.39 0 0 0 8.12 2.19l17.8 17.8a8.33 8.33 0 0 0 0.375 5.31 8.38 8.38 0 0 0 3.62 4.09v81.3a8.38 8.38 0 0 0-3.34 3.56c-0.015 0.02-0.02 0.043-0.031 0.063a7.6 7.6 0 0 0-0.157 0.344c-0.848 1.81-1.04 3.85-0.53 5.75l-13.4 13.4a8.38 8.38 0 0 0-2.31-0.344c-3.18 0-5.95 1.79-7.38 4.41-0.072 0.121-0.123 0.252-0.188 0.375-0.105 0.218-0.227 0.43-0.312 0.657-0.015 0.03-0.02 0.063-0.032 0.094-0.045 0.122-0.085 0.25-0.124 0.375-1.04 2.95-0.39 6.36 1.97 8.72a8.37 8.37 0 0 0 1.88 1.41v81c-2.51 1.45-4.22 4.15-4.22 7.25 0 4.63 3.78 8.41 8.41 8.41s8.38-3.78 8.38-8.41a8.35 8.35 0 0 0-4.19-7.25v-81.2a8.45 8.45 0 0 0 1.62-1.25c0.819-0.818 1.4-1.77 1.81-2.78a8.28 8.28 0 0 0 0.75-3.44 8.37 8.37 0 0 0-0.25-2.06l13.5-13.5c2.8 0.75 5.93 0.04 8.13-2.16a8.37 8.37 0 0 0 1.91-2.97 8.28 8.28 0 0 0 0.656-3.25 8.36 8.36 0 0 0-4.19-7.25v-81.4a8.38 8.38 0 0 0 3.5-10.4c-1.64-3.96-5.97-6-10-4.88l-17.8-17.8a8.41 8.41 0 0 0-2.19-8.13 8.28 8.28 0 0 0-5.91-2.44zm74.3 28.2c-4.63 0-8.38 3.78-8.38 8.41s3.74 8.38 8.38 8.38c3.1 0 5.8-1.69 7.25-4.19h35.1c1.45 2.5 4.15 4.19 7.25 4.19 4.63 0 8.41-3.74 8.41-8.38s-3.78-8.41-8.41-8.41c-3.1 0-5.8 1.69-7.25 4.19h-35.1c-1.45-2.5-4.15-4.19-7.25-4.19zm1.8 71.8c-4.63 0-8.38 3.78-8.38 8.41a8.35 8.35 0 0 0 4.19 7.25v81.4a8.35 8.35 0 0 0-4.19 7.25c0 4.63 3.74 8.41 8.38 8.41s8.41-3.78 8.41-8.41c0-3.1-1.71-5.8-4.22-7.25v-81.4c2.51-1.45 4.22-4.15 4.22-7.25 0-4.63-3.78-8.41-8.41-8.41zm71.9 0c-4.63 0-8.41 3.78-8.41 8.41 0 3.1 1.69 5.8 4.19 7.25v129c-2.5 1.46-4.19 4.16-4.19 7.25 0 4.63 3.78 8.41 8.41 8.41s8.38-3.78 8.38-8.41a8.35 8.35 0 0 0-4.19-7.25v-129a8.35 8.35 0 0 0 4.19-7.25c0-4.63-3.74-8.41-8.38-8.41zm168 0c-4.63 0-8.38 3.78-8.38 8.41a8.35 8.35 0 0 0 4.19 7.25v153a8.36 8.36 0 0 0-4.19 7.25v0.313c0 0.113 0.027 0.23 0.031 0.343 0.015 0.094-0.015 0.189 0 0.282 0.206 2.83 1.83 5.27 4.16 6.62v33.2a8.4 8.4 0 0 0-1.72 1.31c-1.69 1.69-2.53 3.91-2.47 6.13v0.093c0 0.118 0.027 0.227 0.032 0.344v0.219c0.295 4.36 3.94 7.81 8.38 7.81 0.844 0 1.64-0.112 2.41-0.344l37.5 37.4a8.32 8.32 0 0 0 0.344 5.34 8.38 8.38 0 0 0 3.62 4.09v153c-3.63 2.06-5.26 6.55-3.62 10.5 1.62 3.92 5.88 5.95 9.88 4.91l37.7 37.7a8.43 8.43 0 0 0 0.375 5.34 8.31 8.31 0 0 0 3.59 4.06l-0.095 129a8.35 8.35 0 0 0-4.19 7.25c0 0.801 0.104 1.58 0.313 2.31l-37.6 37.6c-0.727-0.205-1.49-0.343-2.28-0.343-4.63 0-8.41 3.77-8.41 8.41v0.313c0 3.1 1.71 5.8 4.22 7.25v105c-2.6 1.43-4.38 4.17-4.38 7.34 0 4.63 3.74 8.38 8.38 8.38s8.41-3.74 8.41-8.38c0-3.03-1.62-5.68-4.03-7.16v-105a8.36 8.36 0 0 0 3.69-4.38 8.4 8.4 0 0 0 0.343-5.34l37.7-37.7c2.8 0.745 5.93 0.037 8.12-2.16 3.28-3.28 3.28-8.6 0-11.9-0.205-0.204-0.437-0.383-0.656-0.562-0.017-0.014-0.045-0.017-0.063-0.032-0.376-0.3-0.746-0.585-1.16-0.812l0.157-129c3.52-2.1 5.08-6.51 3.47-10.4-1.64-3.96-5.97-5.97-10-4.84l-37.6-37.6a8.33 8.33 0 0 0-0.312-5.47 8.33 8.33 0 0 0-3.5-4v-153c3.54-2.09 5.12-6.53 3.5-10.4-1.64-3.97-6-6.02-10-4.88l-37.6-37.6a8.32 8.32 0 0 0 0.219-1.97v-0.312c0-2.15-0.832-4.27-2.47-5.91a8.4 8.4 0 0 0-1.72-1.31v-33.2a8.36 8.36 0 0 0 4.19-7.25v-0.312c0-3.1-1.71-5.8-4.22-7.25v-153c2.51-1.45 4.22-4.15 4.22-7.25 0-4.63-3.78-8.41-8.41-8.41z"/><path d="m186 521c-4.63 0-8.38 3.78-8.38 8.41a8.36 8.36 0 0 0 4.34 7.34v81.1c-2.5 1.45-4.19 4.15-4.19 7.25v0.344c0 0.174 0.015 0.36 0.032 0.53 0.033 0.512 0.099 1.02 0.219 1.5l-37.5 37.5c-2.79-0.737-5.9-0.033-8.09 2.16-3.28 3.28-3.28 8.6 0 11.9 3.28 3.28 8.6 3.28 11.9 0 2.2-2.2 2.92-5.32 2.16-8.12l37.4-37.4a8.24 8.24 0 0 0 2.28 0.313 8.4 8.4 0 0 0 7.56-4.75c0.064-0.124 0.129-0.25 0.187-0.375 0.107-0.251 0.2-0.488 0.282-0.75 1.04-2.95 0.39-6.36-1.97-8.72a8.4 8.4 0 0 0-1.88-1.41v-81.3c2.42-1.47 4.06-4.12 4.06-7.16 0-4.63-3.77-8.41-8.41-8.41zm144 47.8c-4.63 0-8.38 3.78-8.38 8.41a8.36 8.36 0 0 0 4.19 7.25v105a8.36 8.36 0 0 0-4.19 7.25v0.312c0 0.181 0.015 0.354 0.031 0.532a8.33 8.33 0 0 0 4.16 6.72v33.1a8.42 8.42 0 0 0-1.84 1.41c-2.51 2.51-3.09 6.21-1.75 9.28 1.23 3.11 4.24 5.31 7.78 5.31 0.801 0 1.58-0.103 2.31-0.313l37.5 37.5c-0.437 1.7-0.379 3.54 0.344 5.28a8.38 8.38 0 0 0 3.62 4.09v153a8.4 8.4 0 0 0-4.09 8.88 8.43 8.43 0 0 0 4.09 6v153c-2.5 1.45-4.19 4.15-4.19 7.25 0 4.63 3.78 8.38 8.41 8.38s8.38-3.74 8.38-8.38a8.4 8.4 0 0 0-4.22-7.28v-151l35.6 35.6a8.43 8.43 0 0 0 0.375 5.34c0.745 1.8 2.05 3.17 3.63 4.06v105c-2.51 1.45-4.22 4.15-4.22 7.25 0 4.63 3.78 8.41 8.41 8.41s8.38-3.77 8.38-8.41a8.35 8.35 0 0 0-4.19-7.25v-105c3.54-2.09 5.12-6.53 3.5-10.4-1.64-3.96-5.97-5.97-10-4.84l-37.5-37.5c0.168-0.66 0.25-1.35 0.25-2.06 0-0.657-0.075-1.29-0.218-1.91 0-0.032-0.024-0.061-0.032-0.094-0.04-0.165-0.075-0.339-0.124-0.5-0.093-0.344-0.173-0.693-0.313-1.03a8.34 8.34 0 0 0-3.53-4.03v-153c3.56-2.08 5.15-6.52 3.53-10.4-1.64-3.96-5.97-6-10-4.88l-37.5-37.5c0.16-0.647 0.281-1.3 0.281-2a8.41 8.41 0 0 0-0.75-3.47 8.26 8.26 0 0 0-1.84-2.75c-0.5-0.5-1.04-0.934-1.62-1.28v-33.2c2.41-1.4 4.07-3.95 4.19-6.91 0.018-0.221 0.032-0.431 0.032-0.656a8.4 8.4 0 0 0-4.22-7.28v-105a8.4 8.4 0 0 0 4.22-7.28c0-4.63-3.78-8.41-8.41-8.41zm120 24.3c-4.63 0-8.41 3.78-8.41 8.41 0 3.09 1.69 5.8 4.19 7.25v81a8.35 8.35 0 0 0-1.84 1.38 8.41 8.41 0 0 0-1.81 9.19 8.43 8.43 0 0 0 7.88 5.44c0.811 0 1.57-0.129 2.31-0.344l37.4 37.5a8.33 8.33 0 0 0 0.375 5.31c0.745 1.8 2.05 3.17 3.62 4.06v153c-3.63 2.06-5.26 6.55-3.62 10.5 1.62 3.91 5.86 5.94 9.84 4.91l37.8 37.8c-0.438 1.7-0.378 3.54 0.344 5.28a8.38 8.38 0 0 0 3.62 4.09l-0.125 129c-2.49 1.45-4.18 4.16-4.19 7.25 0 4.63 3.78 8.4 8.41 8.41s8.37-3.78 8.38-8.41c0-3.09-1.67-5.76-4.16-7.22l0.095-129c3.54-2.09 5.12-6.53 3.5-10.4-1.64-3.96-5.97-6-10-4.88l-37.6-37.6c0.482-1.74 0.4-3.64-0.344-5.44a8.4 8.4 0 0 0-3.5-4.03v-153a8.38 8.38 0 0 0 3.5-10.4c-1.64-3.96-5.97-6-10-4.88l-37.5-37.5c0.167-0.66 0.25-1.35 0.25-2.06 0-0.869-0.129-1.68-0.375-2.47-0.015-0.054-0.046-0.102-0.063-0.156v-0.032a8.44 8.44 0 0 0-2.12-3.56 8.33 8.33 0 0 0-1.62-1.25v-81.2a8.35 8.35 0 0 0 4.19-7.25c0-4.63-3.74-8.41-8.38-8.41zm71.9 0c-4.63 0-8.38 3.78-8.38 8.41a8.35 8.35 0 0 0 4.19 7.25v57.4a8.35 8.35 0 0 0-4.19 7.25c0 4.63 3.74 8.41 8.38 8.41s8.41-3.78 8.41-8.41c0-3.1-1.71-5.8-4.22-7.25v-57.4c2.51-1.45 4.22-4.14 4.22-7.25 0-4.63-3.78-8.41-8.41-8.41zm-360 95.9a8.37 8.37 0 0 0-8.38 8.38 8.36 8.36 0 0 0 4.19 7.25v33.3a8.35 8.35 0 0 0-1.84 1.38c-3.28 3.28-3.28 8.6 0 11.9a8.35 8.35 0 0 0 1.84 1.38v153a8.42 8.42 0 0 0-1.84 1.41c-2.51 2.51-3.09 6.21-1.75 9.28 1.23 3.11 4.24 5.31 7.78 5.31 0.801 0 1.58-0.102 2.31-0.312l13.4 13.4a8.47 8.47 0 0 0 0.406 5.5 8.45 8.45 0 0 0 3.62 4.22v33.4c-2.5 1.45-4.19 4.15-4.19 7.25 0 4.63 3.78 8.41 8.41 8.41s8.38-3.78 8.38-8.41a8.36 8.36 0 0 0-4.19-7.25v-33.4a8.35 8.35 0 0 0 4.19-7.25 8.43 8.43 0 0 0-0.656-3.28 0.306 0.306 0 0 1-0.031-0.063c-0.015-0.03-0.018-0.063-0.032-0.094a8.38 8.38 0 0 0-1.84-2.78 8.44 8.44 0 0 0-8.12-2.19l-13.6-13.5c0.165-0.657 0.281-1.32 0.281-2.03a8.38 8.38 0 0 0-0.469-2.69 8.52 8.52 0 0 0-0.156-0.47c-0.016-0.041-0.045-0.083-0.063-0.124a8.27 8.27 0 0 0-1.91-2.94c-0.5-0.5-1.04-0.934-1.62-1.28v-153a8.33 8.33 0 0 0 1.62-1.25 8.39 8.39 0 0 0 2.19-8.12l13.7-13.7c2.8 0.745 5.93 0.037 8.12-2.16 3.28-3.28 3.28-8.6 0-11.9-3.28-3.28-8.6-3.28-11.9 0a8.39 8.39 0 0 0-2.19 8.12l-11.6 11.6v-30.4c2.51-1.45 4.22-4.15 4.22-7.25 0-4.63-3.78-8.38-8.41-8.38z"/><path d="m234 713c-2.15 0-4.3 0.831-5.94 2.47-2.2 2.19-2.9 5.3-2.16 8.09l-13.5 13.5a8.21 8.21 0 0 0-2.28-0.345 8.43 8.43 0 0 0-7.88 5.44c-0.015 0.03-0.02 0.064-0.032 0.094-0.045 0.122-0.085 0.25-0.124 0.375-1.04 2.95-0.39 6.36 1.97 8.72a8.35 8.35 0 0 0 1.84 1.38v105c-0.176 0.099-0.36 0.2-0.53 0.313a8.32 8.32 0 0 0-1.31 1.06c-3.28 3.28-3.28 8.6 0 11.9a8.32 8.32 0 0 0 4.31 2.31c0.015 2e-3 0.021-1e-3 0.032 0a8.47 8.47 0 0 0 3.53-0.094c0.082-0.02 0.169-9e-3 0.25-0.03l13.7 13.7a8.39 8.39 0 0 0 2.19 8.12c0.205 0.205 0.406 0.415 0.625 0.594 0 4e-3 0.026-5e-3 0.032 0 0.378 0.306 0.774 0.582 1.19 0.812v105a8.47 8.47 0 0 0-3.66 4.31c-0.015 0.03-0.02 0.064-0.031 0.094-0.045 0.122-0.086 0.25-0.125 0.375a8.4 8.4 0 0 0-0.187 4.91l-37.7 37.7c-2.8-0.746-5.9-0.038-8.09 2.16-3.28 3.28-3.28 8.6 0 11.9s8.6 3.28 11.9 0c2.2-2.2 2.88-5.32 2.12-8.12l37.7-37.7c2.8 0.752 5.93 0.041 8.12-2.16a8.26 8.26 0 0 0 1.91-2.94 8.44 8.44 0 0 0 0.656-3.28 8.35 8.35 0 0 0-4.19-7.25v-105c0.15-0.086 0.295-0.186 0.438-0.281 0.018-0.014 0.043-0.019 0.063-0.032 0.203-0.137 0.372-0.283 0.562-0.437 0.017-0.014 0.047-0.017 0.063-0.032a8.37 8.37 0 0 0 3.06-6.47c0-4.63-3.74-8.41-8.38-8.41-0.8 0-1.58 0.134-2.31 0.344l-13.6-13.6a8.25 8.25 0 0 0 0.312-2.31 8.4 8.4 0 0 0-4.22-7.28v-105a8.34 8.34 0 0 0 1.66-1.28 8.34 8.34 0 0 0 1.91-2.97 8.28 8.28 0 0 0 0.656-3.25c0-0.7-0.087-1.38-0.25-2.03l13.6-13.6c2.8 0.746 5.9 0.038 8.09-2.16 3.28-3.28 3.28-8.6 0-11.9a8.39 8.39 0 0 0-5.94-2.47zm312 23.7c-4.63 0-8.41 3.77-8.41 8.41 0 3.09 1.69 5.8 4.19 7.25v153c-2.49 1.46-4.19 4.16-4.19 7.25 0 4.63 3.78 8.38 8.41 8.38s8.38-3.74 8.38-8.38a8.36 8.36 0 0 0-4.19-7.25v-153a8.36 8.36 0 0 0 4.19-7.25c0-4.63-3.74-8.41-8.38-8.41zm-288 24.2c-4.63 0-8.38 3.74-8.38 8.38s3.74 8.41 8.38 8.41c3.09 0 5.8-1.7 7.25-4.19h35.1c1.46 2.5 4.16 4.19 7.25 4.19 4.63 0 8.41-3.78 8.41-8.41s-3.78-8.38-8.41-8.38a8.35 8.35 0 0 0-7.25 4.19h-35.1a8.36 8.36 0 0 0-7.25-4.19zm-144 47.8a8.37 8.37 0 0 0-8.38 8.38 8.36 8.36 0 0 0 4.19 7.25v33.5a8.36 8.36 0 0 0-4.19 7.25c0 0.797 0.103 1.55 0.313 2.28l-37.6 37.6c-4.02-1.11-8.33 0.922-9.97 4.88-1.62 3.91-0.075 8.35 3.47 10.4v105a8.38 8.38 0 0 0-3.6 10.5c1.62 3.91 5.86 5.94 9.84 4.91l37.7 37.7c-0.046 0.175-0.058 0.354-0.094 0.532-0.627 2.72 0.097 5.69 2.22 7.81a8.37 8.37 0 0 0 1.88 1.41v225a8.41 8.41 0 0 0-3.53 4c-0.032 0.074-0.065 0.143-0.095 0.219-0.073 0.172-0.126 0.355-0.187 0.531-0.563 1.6-0.653 3.34-0.219 4.97l-13.7 13.7a8.42 8.42 0 0 0-8.12 2.19c-3.28 3.28-3.28 8.57 0 11.8s8.6 3.28 11.9 0a8.39 8.39 0 0 0 2.19-8.13l13.7-13.7a8.39 8.39 0 0 0 8.13-2.19 8.27 8.27 0 0 0 1.91-2.94c0.084-0.2 0.15-0.417 0.219-0.625 0.015-0.053 0.048-0.102 0.063-0.156 0.245-0.788 0.406-1.63 0.406-2.5 0-3.1-1.71-5.8-4.22-7.25v-225a8.33 8.33 0 0 0 1.62-1.25 8.3 8.3 0 0 0 2.16-3.75c0.06-0.196 0.11-0.393 0.156-0.594 0.015-0.064 0.02-0.123 0.031-0.187a8.38 8.38 0 0 0-0.093-3.69l37.6-37.6c2.8 0.745 5.9 0.037 8.1-2.16 3.28-3.28 3.28-8.6 0-11.9-3.28-3.28-8.6-3.28-11.9 0-2.2 2.2-2.91 5.32-2.16 8.12l-37.4 37.4a8.31 8.31 0 0 0-4.59-0.032l-37.6-37.6a8.33 8.33 0 0 0-0.312-5.47 8.33 8.33 0 0 0-3.5-4v-105c1.57-0.89 2.88-2.27 3.62-4.06a8.33 8.33 0 0 0 0.376-5.31l37.7-37.7c2.8 0.749 5.93 0.01 8.13-2.19 3.28-3.28 3.28-8.6 0-11.9-0.205-0.205-0.437-0.383-0.657-0.562-0.016-0.014-0.045-0.018-0.063-0.032-0.375-0.3-0.746-0.585-1.16-0.812v-33.4c2.51-1.45 4.22-4.15 4.22-7.25 0-4.63-3.78-8.38-8.41-8.38zm144 0.15c-4.63 0-8.38 3.78-8.38 8.41s3.74 8.38 8.38 8.38a8.38 8.38 0 0 0 7.25-4.16h35.1a8.37 8.37 0 0 0 7.25 4.16c4.63 0 8.41-3.74 8.41-8.38s-3.78-8.41-8.41-8.41c-3.1 0-5.8 1.69-7.25 4.19h-35.1c-1.46-2.49-4.16-4.19-7.25-4.19zm96 47.8c-4.63 0-8.38 3.78-8.38 8.41a8.35 8.35 0 0 0 4.19 7.25v33.4a8.36 8.36 0 0 0-4.19 7.25c0 0.8 0.104 1.58 0.313 2.31l-13.9 13.9c-0.652-0.162-1.33-0.28-2.03-0.28-2.03 0-3.89 0.74-5.34 1.94a8.53 8.53 0 0 0-1.31 1.09 8.37 8.37 0 0 0 0 11.8 8.36 8.36 0 0 0 2.47 1.69v176a8.38 8.38 0 0 0-3.63 4.09 8.33 8.33 0 0 0-0.375 5.31l-13.7 13.7a8.44 8.44 0 0 0-8.12 2.19c-3.28 3.28-3.28 8.57 0 11.8s8.6 3.28 11.9 0a8.39 8.39 0 0 0 2.19-8.12l13.7-13.7c4.03 1.12 8.36-0.915 10-4.88a8.38 8.38 0 0 0-3.5-10.4v-177c0.22-0.159 0.45-0.318 0.657-0.5 2.15-1.52 3.56-4.02 3.56-6.84 0-0.803-0.133-1.58-0.343-2.31l13.8-13.8a8.39 8.39 0 0 0 8.12-2.19 8.37 8.37 0 0 0-1.88-13.2v-33.4c2.51-1.45 4.22-4.15 4.22-7.25 0-4.63-3.78-8.41-8.41-8.41zm-96 0.15c-3.18 0-5.95 1.79-7.38 4.41a8.27 8.27 0 0 0-0.625 1.5 8.42 8.42 0 0 0-0.375 2.5 8.37 8.37 0 0 0 8.38 8.38c0.29 0 0.594-3e-3 0.876-0.031 2.73-0.278 5.06-1.87 6.38-4.12h35.1c0.094 0.16 0.208 0.314 0.312 0.468a8.34 8.34 0 0 0 6.94 3.69c4.63 0 8.41-3.74 8.41-8.38s-3.78-8.41-8.41-8.41c-0.29 0-0.561 0.034-0.843 0.063a8.38 8.38 0 0 0-6.1 3.66c-0.104 0.154-0.218 0.307-0.312 0.469h-35.1c-1.46-2.49-4.16-4.19-7.25-4.19zm0 48c-4.63 0-8.38 3.74-8.38 8.38s3.74 8.41 8.38 8.41c3.09 0 5.8-1.7 7.25-4.19h33.5c1.46 2.49 4.16 4.19 7.25 4.19 4.63 0 8.38-3.78 8.38-8.41s-3.74-8.38-8.38-8.38a8.38 8.38 0 0 0-7.25 4.16h-33.5a8.38 8.38 0 0 0-7.25-4.16zm192 23.8c-2.15 0-4.3 0.832-5.94 2.47a8.37 8.37 0 0 0 0 11.8 8.39 8.39 0 0 0 8.12 2.19l37.7 37.7a8.33 8.33 0 0 0 0.375 5.31 8.41 8.41 0 0 0 3.59 4.09c-0.015 51.1-0.087 102-0.094 153a8.4 8.4 0 0 0-3.62 10.5c1.63 3.92 5.88 5.92 9.88 4.88l37.8 37.7a8.31 8.31 0 0 0 0.343 5.34 8.33 8.33 0 0 0 3.66 4.09v105a8.36 8.36 0 0 0-4.22 7.28c0 4.63 3.74 8.41 8.38 8.41s8.41-3.78 8.41-8.41c0-3.1-1.69-5.8-4.19-7.25v-105a8.39 8.39 0 0 0 3.47-10.4c-1.64-3.96-5.97-5.97-10-4.84l-37.7-37.7a8.33 8.33 0 0 0-0.344-5.44 8.33 8.33 0 0 0-3.5-4c0.014-51.1 0.145-102 0.156-153 3.54-2.09 5.09-6.53 3.47-10.4-1.64-3.97-6-6.02-10-4.88l-37.6-37.6c0.759-2.81 0.045-5.92-2.16-8.12a8.39 8.39 0 0 0-5.94-2.47z"/><path d="m90.2 929c-4.63 0-8.38 3.74-8.38 8.38s3.74 8.41 8.38 8.41c3.09 0 5.8-1.7 7.25-4.19h33.4a8.45 8.45 0 0 0 7.28 4.19c4.63 0 8.38-3.78 8.38-8.41s-3.74-8.38-8.38-8.38a8.4 8.4 0 0 0-7.28 4.19h-33.4a8.36 8.36 0 0 0-7.25-4.19zm168 23.8c-4.63 0-8.41 3.74-8.41 8.38 0 3.09 1.69 5.8 4.19 7.25v81.4c-2.49 1.46-4.19 4.16-4.19 7.25 0 0.803 0.133 1.58 0.343 2.31l-37.6 37.6a8.38 8.38 0 0 0-8.09 2.19 8.37 8.37 0 0 0-1.56 2.19 8.33 8.33 0 0 0-1.03 4.03 8.35 8.35 0 0 0 4.19 7.25v33.4a8.36 8.36 0 0 0-4.19 7.25c0 4.63 3.74 8.41 8.38 8.41s8.41-3.78 8.41-8.41c0-3.1-1.71-5.8-4.22-7.25v-33.4a8.42 8.42 0 0 0 3.38-3.66c0.063-0.12 0.13-0.222 0.188-0.343 0.106-0.251 0.2-0.488 0.281-0.75 0.566-1.61 0.662-3.36 0.219-5l37.6-37.6a8.45 8.45 0 0 0 8.16-2.19c3.28-3.28 3.28-8.6 0-11.9-0.567-0.568-1.21-1-1.88-1.38v-81.4a8.36 8.36 0 0 0 4.19-7.25 8.37 8.37 0 0 0-8.38-8.38zm47.9 0a8.37 8.37 0 0 0-8.38 8.38 8.36 8.36 0 0 0 4.19 7.25v129a8.36 8.36 0 0 0-4.19 7.25c0 0.8 0.103 1.58 0.313 2.31l-37.6 37.6a8.39 8.39 0 0 0-8.12 2.19 8.39 8.39 0 0 0-1.84 2.78 8.29 8.29 0 0 0-0.75 3.44c0 3.09 1.7 5.8 4.19 7.25v153c-2.49 1.46-4.19 4.16-4.19 7.25 0 4.63 3.78 8.41 8.41 8.41s8.38-3.78 8.38-8.41a8.36 8.36 0 0 0-4.19-7.25v-153a8.37 8.37 0 0 0 3.81-4.75c0.564-1.6 0.655-3.34 0.219-4.97l37.7-37.7a8.39 8.39 0 0 0 8.12-2.19 8.37 8.37 0 0 0-1.88-13.2v-129c2.51-1.45 4.22-4.15 4.22-7.25 0-4.63-3.78-8.38-8.41-8.38zm-192 24.3c-4.63 0-8.41 3.74-8.41 8.38 0 3.1 1.71 5.8 4.22 7.25v33.4c-2.51 1.45-4.22 4.15-4.22 7.25 0 4.63 3.78 8.41 8.41 8.41s8.38-3.77 8.38-8.41a8.35 8.35 0 0 0-4.19-7.25v-33.4a8.36 8.36 0 0 0 4.19-7.25 8.37 8.37 0 0 0-8.38-8.38zm-52.1 91.5c-2.15 0-4.3 0.8-5.94 2.44-3.28 3.28-3.28 8.6 0 11.9 2.19 2.19 5.33 2.9 8.12 2.16l17.8 17.8a8.32 8.32 0 0 0 0.375 5.28 8.31 8.31 0 0 0 3.59 4.06v81.4c-1.65 0.965-2.97 2.47-3.66 4.28-0.015 0.03-0.02 0.065-0.031 0.095a8 8 0 0 0-0.124 0.375 8.42 8.42 0 0 0-0.188 4.97l-13.4 13.4a8.22 8.22 0 0 0-2.31-0.343 8.43 8.43 0 0 0-7.88 5.44c-0.015 0.03-0.02 0.064-0.031 0.094-0.045 0.123-0.086 0.25-0.124 0.375-1.03 2.95-0.386 6.36 1.97 8.72a8.35 8.35 0 0 0 1.84 1.37v81c-2.5 1.45-4.19 4.16-4.19 7.25 0 4.63 3.78 8.41 8.41 8.41s8.38-3.78 8.38-8.41a8.35 8.35 0 0 0-4.19-7.25v-81.2a8.33 8.33 0 0 0 1.62-1.25 8.37 8.37 0 0 0 1.91-2.97 8.28 8.28 0 0 0 0.656-3.25c0-0.713-0.082-1.4-0.25-2.06l13.5-13.5c2.81 0.758 5.92 0.045 8.12-2.16a8.38 8.38 0 0 0 1.91-2.97c0.085-0.2 0.15-0.416 0.218-0.624 0.015-0.054 0.048-0.102 0.063-0.156a8.36 8.36 0 0 0-3.81-9.72v-81.4c3.54-2.09 5.12-6.53 3.5-10.4-1.64-3.96-5.97-6-10-4.88l-17.8-17.8a8.41 8.41 0 0 0-2.19-8.13c-1.64-1.64-3.79-2.44-5.94-2.44zm74.3 28.2c-4.63 0-8.41 3.74-8.41 8.38s3.77 8.41 8.41 8.41c3.09 0 5.8-1.7 7.25-4.19h35.1c1.46 2.49 4.16 4.19 7.25 4.19 4.63 0 8.38-3.78 8.38-8.41s-3.74-8.38-8.38-8.38a8.36 8.36 0 0 0-7.25 4.19h-35.1a8.36 8.36 0 0 0-7.25-4.19zm1.8 71.7a8.37 8.37 0 0 0-8.38 8.38c0 3.1 1.68 5.83 4.19 7.28v81.4a8.36 8.36 0 0 0-4.19 7.25c0 4.63 3.74 8.41 8.38 8.41s8.41-3.77 8.41-8.41c0-3.1-1.71-5.8-4.22-7.25v-81.4c2.51-1.45 4.22-4.18 4.22-7.28 0-4.63-3.78-8.38-8.41-8.38zm71.9 0a8.37 8.37 0 0 0-8.38 8.38 8.43 8.43 0 0 0 4.19 7.28v129c-2.5 1.45-4.19 4.15-4.19 7.25 0 4.63 3.74 8.41 8.38 8.41s8.41-3.78 8.41-8.41c0-3.11-1.71-5.8-4.22-7.25v-129c2.51-1.45 4.22-4.17 4.22-7.28 0-4.63-3.78-8.38-8.41-8.38zm168 0c-4.63 0-8.41 3.74-8.41 8.38a8.45 8.45 0 0 0 4.19 7.28v153c-2.5 1.46-4.19 4.16-4.19 7.25 0 4.63 3.78 8.41 8.41 8.41s8.38-3.78 8.38-8.41a8.35 8.35 0 0 0-4.19-7.25v-153a8.4 8.4 0 0 0 4.19-7.28 8.37 8.37 0 0 0-8.38-8.38z"/><path d="m186 1169c-4.63 0-8.41 3.78-8.41 8.41 0 3.17 1.78 5.92 4.38 7.34v81.1a8.36 8.36 0 0 0-4.19 7.25v0.344c0 0.17 0.015 0.333 0.032 0.5 0.031 0.522 0.096 1.04 0.219 1.53l-37.5 37.5a8.39 8.39 0 0 0-8.12 2.19c-3.28 3.28-3.28 8.6 0 11.9 3.28 3.28 8.6 3.28 11.9 0 2.2-2.2 2.9-5.32 2.16-8.12l37.4-37.4a8.41 8.41 0 0 0 2.31 0.313c3.34 0 6.21-1.96 7.56-4.78 0.063-0.12 0.13-0.222 0.187-0.343 0.093-0.22 0.176-0.428 0.25-0.657 0.015-0.03 0.021-0.063 0.032-0.093v-0.063c1.01-2.94 0.374-6.31-1.97-8.66a8.4 8.4 0 0 0-1.88-1.41v-81.3a8.35 8.35 0 0 0 4.03-7.16c0-4.63-3.74-8.41-8.38-8.41zm144 47.8c-4.63 0-8.38 3.78-8.38 8.41a8.35 8.35 0 0 0 4.19 7.25v105a8.35 8.35 0 0 0-4.19 7.25c0 4.63 3.74 8.41 8.38 8.41s8.41-3.78 8.41-8.41c0-3.1-1.71-5.8-4.22-7.25v-105c2.51-1.45 4.22-4.15 4.22-7.25 0-4.63-3.78-8.41-8.41-8.41zm120 24.3c-4.63 0-8.41 3.78-8.41 8.41 0 3.1 1.71 5.8 4.22 7.25v81.4c-2.51 1.45-4.22 4.15-4.22 7.25 0 4.63 3.78 8.41 8.41 8.41s8.38-3.78 8.38-8.41a8.35 8.35 0 0 0-4.19-7.25v-81.4a8.35 8.35 0 0 0 4.19-7.25c0-4.63-3.74-8.41-8.38-8.41zm71.9 0c-4.63 0-8.38 3.78-8.38 8.41a8.35 8.35 0 0 0 4.19 7.25v57.4a8.36 8.36 0 0 0-4.19 7.25c0 4.63 3.74 8.41 8.38 8.41s8.41-3.78 8.41-8.41a8.4 8.4 0 0 0-4.22-7.28v-57.4c2.51-1.45 4.22-4.14 4.22-7.25 0-4.63-3.78-8.41-8.41-8.41z"/></g><g color="#000000" stroke="#fff" stroke-linecap="round" stroke-linejoin="round"><path d="m583 34.7c0 8.53-6.91 15.4-15.4 15.4s-15.4-6.91-15.4-15.4 6.91-15.4 15.4-15.4 15.4 6.91 15.4 15.4zm-527 0c0 8.53-6.91 15.4-15.4 15.4s-15.4-6.91-15.4-15.4 6.91-15.4 15.4-15.4 15.4 6.91 15.4 15.4z" stroke-width="0"/></g></g></svg>
