<svg xmlns="http://www.w3.org/2000/svg" xmlns:xlink="http://www.w3.org/1999/xlink" viewBox="0 0 1024 1024"><defs><linearGradient id="a"><stop offset="0" stop-color="#fff"/><stop offset="1"/></linearGradient><linearGradient xlink:href="#a" id="o" x1="408" x2="539" y1="544" y2="362" gradientTransform="translate(-309 -161)scale(1.82)" gradientUnits="userSpaceOnUse"/><linearGradient xlink:href="#a" id="m" x1="435" x2="528" y1="370" y2="400" gradientTransform="translate(-309 -161)scale(1.82)" gradientUnits="userSpaceOnUse"/><linearGradient xlink:href="#a" id="l" x1="383" x2="413" y1="462" y2="466" gradientTransform="translate(-317 -139)scale(1.82)" gradientUnits="userSpaceOnUse"/><linearGradient xlink:href="#a" id="k" x1="417" x2="508" y1="314" y2="591" gradientTransform="translate(-309 -161)scale(1.82)" gradientUnits="userSpaceOnUse" spreadMethod="reflect"/><linearGradient xlink:href="#a" id="j" x1="402" x2="406" y1="366" y2="391" gradientTransform="translate(-309 -161)scale(1.82)" gradientUnits="userSpaceOnUse"/><linearGradient xlink:href="#a" id="i" x1="316" x2="292" y1="347" y2="377" gradientTransform="translate(-309 -161)scale(1.82)" gradientUnits="userSpaceOnUse"/><linearGradient xlink:href="#a" id="h" x1="307" x2="327" y1="349" y2="373" gradientTransform="translate(-309 -161)scale(1.82)" gradientUnits="userSpaceOnUse"/><linearGradient xlink:href="#a" id="g" x1="406" x2="378" y1="368" y2="396" gradientTransform="translate(-309 -161)scale(1.82)" gradientUnits="userSpaceOnUse"/><linearGradient xlink:href="#a" id="f" x1="352" x2="329" y1="384" y2="500" gradientTransform="translate(-317 -139)scale(1.82)" gradientUnits="userSpaceOnUse"/><linearGradient xlink:href="#a" id="e" x1="402" x2="364" y1="334" y2="508" gradientTransform="translate(-309 -161)scale(1.82)" gradientUnits="userSpaceOnUse"/><linearGradient xlink:href="#a" id="c" x1="247" x2="292" y1="540" y2="428" gradientTransform="translate(-309 -161)scale(1.82)" gradientUnits="userSpaceOnUse"/><linearGradient xlink:href="#a" id="b" x1="207" x2="244" y1="597" y2="367" gradientTransform="translate(-309 -161)scale(1.82)" gradientUnits="userSpaceOnUse"/><linearGradient xlink:href="#a" id="n" x1="288" x2="450" y1="396" y2="288" gradientTransform="translate(-309 -161)scale(1.82)" gradientUnits="userSpaceOnUse" spreadMethod="reflect"/><linearGradient xlink:href="#a" id="p" x1="573" x2="212" y1="583" y2="204" gradientTransform="translate(-309 -161)scale(1.82)" gradientUnits="userSpaceOnUse" spreadMethod="reflect"/></defs><path fill="#fff" fill-opacity=".34" d="M0 0h1024v1024H0z" style="paint-order:markers fill stroke"/><path fill="#575757" d="M962 263 674 475l-6.98 150 284-270z"/><path fill="#4d4d4d" d="m292 410 359 217 15.5-1.84 284-270 6.93-93.9-253-22.4" style="-inkscape-stroke:none;paint-order:markers fill stroke"/><path fill="var(--color4)" d="m298 404 410-166-6.05 1.75-412 166z"/><g stroke-width=".89"><path fill="#939393" d="M955 260 663 469l11 6.1 288-212z"/><path fill="#333" d="m299 543-6.5-132-1.84-4.08 6.5 131z"/><path fill="gray" d="m290 406 1.84 4.08 6.21-6.2z"/><path fill="#333" d="m658 476-366-66.1 6.5 132 353 84.3z"/><path fill="#b3b3b3" d="m663 469-364-64.7-6.21 6.2 366 66.1z"/><path fill="#666" d="m658 476-6.39 151 15.4-1.84 6.98-150z"/><path fill="#b3b3b3" d="m674 475-11-6.1-5.02 7.59z"/></g><g stroke-width="1.82"><path fill="#161616" d="m318 436-2.1-.04 307 58.4 1.6-.1z"/><path fill="url(#b)" d="m316 436-2.67.46-251 111 .51 8.3 10.9 98.8 1.76 6.14 339 110 4.21-.5 4.04.1 200-172 3.53-103-1.93-1.87-306-58.3-2.11-.06z"/><path d="M193 555 75 614.2l4.02 41 344 110-.96-42.2 99.8-78.4z"/><path fill="url(#c)" d="m79.2 617 330 99.2 94.6-74.3-313-81.1z"/><path fill="#decd87" d="m351 677 27.1 7.89 120-87.6-25-6.03z"/><path fill="url(#e)" d="m410 756-.87-40-330-99.2 3.8 35.4z"/><path fill="#decd87" d="m132 613 22.2 6.46 136-72.8-20.9-5.06z"/><path fill="#9c8664" d="m290 552-.27-5.34-136 72.8.52 5.91z"/><path fill="#decd87" d="m223 620 23.4 6.62 109-64.2-22.2-5.35z"/><path fill="#907a57" d="m356 568-.19-5.47-109 64.2.38 5.97z"/><path fill="#d38d5f" d="m155 625-.52-5.91-22.2-6.46.55 5.86z"/><path fill="#decd87" d="m295 640 25 7.06 105-68.2-23.5-5.68z"/><path fill="#856e4b" d="m425 585-.1-5.61-105 68.2.28 6.14z"/><path fill="#d38d5f" d="m247 633-.38-5.97-23.4-6.62.41 5.92z"/><path fill="#7a6340" d="m498 603 .01-5.76-120 87.6.2 6.42z"/><path fill="#d38d5f" d="m320 654-.28-6.14-25-7.06.32 6.08zm57.8 37.4-.2-6.42-27.1-7.89.24 6.36z"/><path fill="gray" d="m62 548 2.92-.34 251-111-2.71.43z"/><path fill="url(#f)" d="m64.9 548-1.88 2.9-.51 5.75 1.37 1.71 2.79-2.85 341 92.8 4.38-3.07 4.27-2.85-351-94.4z"/><path fill="#333" d="m414 763-4.2 2.62-332-107-3.54-4.54-10.6-96.2-1.33-1.69 10.9 98.8 1.77 6.13 339 110 1.42-6.03-2.28-113-1.75-7.4-4.35 3.07 4.5 5.45zM258 487l.25 4.25 5.39-.48-.24-4.25z"/><path fill="#898989" d="m264 487 60.2 13.1 5.43-1.58-66.3-14.4z"/><path fill="#333" d="m264 487 .24 4.25 60.2 13.2-.18-4.35z"/><path fill="#202020" d="m325 506-.18-4.36-.83-1.88.18 4.35z"/><path fill="#525252" d="m325 502 3.13-.39 1.48-3.06-5.43 1.58z"/><path fill="#2d2d2d" d="m325 502-33.4 17.1.68.9 35.8-18.4z"/><path fill="#242424" d="m292 520-.68-.9-5.78-.58z"/><path fill="#333" d="m391 542 .12 4.66 31.5-18.7-.08-4.52z"/><path fill="url(#g)" d="m419 522-34 19.8 5.91.57 31.5-18.6z"/><path fill="#262626" d="m392 543-1.13-1.04-5.91-.57z"/><path fill="url(#h)" d="m263 484-7.79 1.59 3.04 1.7 5.4-.48z"/><path fill="#333" d="m224 503 .3 4.37 34.4-16.2-.26-4.25z"/><path fill="url(#i)" d="m255 486-37.1 17.2 5.68.57 34.4-16.1z"/><path fill="#222" d="m224 504-.39-.82-5.68-.57z"/><path fill="#666" d="m64.9 548-2.92.34.52 8.33.5-5.77z"/><path fill="#313131" d="m624 495-1.6.1 3.52 1.75z"/><path fill="gray" d="m416 642 4.71 2.63 206-148-3.52-1.75z"/><path fill="url(#j)" d="m422 523 5.64-.54-1.28-3.15-7.83 1.83z"/><path fill="#333" d="m422 523 .08 4.52 5.64-.55-.07-4.52z"/><path fill="#949494" d="m428 523 69.6 15.2 5.73-1.72-76.6-16.6z"/><path fill="#333" d="m428 523 .07 4.52 69.5 15.3.01-4.64z"/><path fill="#3f3f3f" d="m499 545 .01-4.65-1.58-2.17v4.64z"/><path fill="#616161" d="m499 540 3.68-.35.47-3.54-5.73 1.72z"/><path fill="#3d3d3d" d="m499 540-29.8 19.8 1.52 1.16 32-21.3z"/><path fill="#272727" d="m471 561-1.52-1.16-6-.57z"/><path fill="url(#k)" d="m623 599 3.55-103-206 148 2.23 126z"/><path fill="url(#l)" d="m413 652 2.28 113 7.47 5.31-2.11-126z"/><path fill="url(#m)" d="m626 496-37.7 27 .97 83.6c1.9 4.95 6.48 7.76 16.2 6.49l17-14.5 3.53-103z"/><path fill="url(#n)" d="M316 436 64 548l350 95.8 208-150zm-52.9 47.8 66.4 14.4-1.48 3.02-35.8 18.4-73.9-17 37.1-17.2zm164 35.5 76.6 16.6-.51 3.53-32 21.3-85.9-19.7 34-19.8z"/><path fill="url(#o)" d="m316 436-32.3 13.6 306 68.4 33.1-23.5z"/><path fill="#666" d="m413 652 7.64-7.64-4.03-2.29-5.22 2.62z"/><path fill="#1a1a1a" d="m418 771 4.59-.81-7.53-5.85-1.22 6.67z"/></g><path d="M144 766V617m-1 0v156h1.77V617z" color="#000" style="-inkscape-stroke:none;paint-order:markers fill stroke" transform="translate(-12 -4.44)"/><g color="#000"><path fill="#aa3939" d="M364 680v83.9" style="-inkscape-stroke:none;paint-order:markers fill stroke" transform="translate(12.9 4.77)"/><path fill="red" d="M363 680v83.9h1.77V680z" style="-inkscape-stroke:none;paint-order:markers fill stroke" transform="translate(12.9 4.77)"/></g><path fill="#fff" d="M307 644v121m-1-121v121h1.77V644z" color="#000" style="-inkscape-stroke:none;paint-order:markers fill stroke" transform="matrix(1 0 0 .836 -11.7 102)"/><path fill="#2d882d" d="M235 624v142m-1-142v142h1.77V624z" color="#000" style="-inkscape-stroke:none;paint-order:markers fill stroke" transform="matrix(1 0 0 .836 -11.4 98)"/><path fill="url(#p)" d="m663 469 292-209-247-21.7-410 166z" style="-inkscape-stroke:none;font-variation-settings:normal"/><path fill="#333" d="M106 766v9.38h9.38v4.69H106v2.34h11.7v-9.38h-9.38v-4.69h9.38l-2.34-2.34zm15.1 4.69v4.69l3.52 7.03h4.69l3.52-7.03v-2.34l-2.34-2.34v4.69l-2.34 4.69h-2.34l-2.34-4.69v-4.69zm-29.3 2.34v2.34h11.7v-2.34z" style="paint-order:markers fill stroke"/><path fill="#2d882d" d="M188 746v16.4h9.38l2.34-2.34v-9.38l-4.69-4.69zm15.1 0v16.4h2.34v-8.2h7.03v8.2h2.34v-14.1l-2.34-2.34zm15.1 0v2.34h4.69v14.1h2.34v-14.1h4.69V746zm15.1 0v16.4h2.34v-8.2h7.03v8.2h2.34v-14.1l-2.34-2.34zm-55.7 2.34v4.69h-4.69v2.34h4.69v4.69h2.34v-4.69h4.69v-2.34h-4.69v-4.69zm12.8 0h4.69l2.34 2.34v9.38h-7.03zm15.1 0h7.03v3.52h-7.03zm30.2 0h7.03v3.52h-7.03z" style="paint-order:markers fill stroke"/><path fill="#fff" d="M260 746v16.4h9.38l2.34-2.34v-9.38l-4.69-4.69zm15.1 0v16.4h2.34v-8.2h7.03v8.2h2.34v-14.1l-2.34-2.34zm15.1 0v2.34h4.69v14.1h2.34v-14.1h4.69V746zm15.1 0v16.4h2.34v-8.2h7.03v8.2h2.34v-14.1l-2.34-2.34zm-42.9 2.34h4.69l2.34 2.34v9.38h-7.03zm15.1 0h7.03v3.52h-7.03zm30.2 0h7.03v3.52h-7.03zm-61.9 4.69v2.34h11.7v-2.34z" style="paint-order:markers fill stroke"/><path fill="red" d="M351 766v9.38h9.38v4.69H351v2.34h11.7v-9.38h-9.38v-4.69h9.38l-2.34-2.34zm-10.4 2.34v4.69h-4.69v2.34h4.69v4.69h2.34v-4.69h4.69v-2.34h-4.69v-4.69zm25.5 2.34v4.69l3.52 7.03h4.69l3.52-7.03v-2.34l-2.34-2.34v4.69l-2.34 4.69h-2.34l-2.34-4.69v-4.69z" style="paint-order:markers fill stroke"/></svg>